<mxfile host="app.diagrams.net" modified="2023-06-22T16:08:05.367Z" agent="Mozilla/5.0 (Macintosh; Intel Mac OS X 10_15_7) AppleWebKit/537.36 (KHTML, like Gecko) Chrome/114.0.0.0 Safari/537.36" etag="gmg6zFx8JUAAM4h7zsUQ" version="21.5.0" type="device">
  <diagram name="Page-1" id="RikKnLmhWO_iKa81v7Vg">
    <mxGraphModel dx="967" dy="933" grid="1" gridSize="10" guides="1" tooltips="1" connect="1" arrows="1" fold="1" page="1" pageScale="1" pageWidth="827" pageHeight="1169" math="0" shadow="0">
      <root>
        <mxCell id="0" />
        <mxCell id="1" parent="0" />
        <mxCell id="Ubv2tb3gwohrMieOdlO1-2" value="Brand" style="swimlane;childLayout=stackLayout;horizontal=1;startSize=50;horizontalStack=0;rounded=1;fontSize=14;fontStyle=0;strokeWidth=2;resizeParent=0;resizeLast=1;shadow=0;dashed=0;align=center;arcSize=4;whiteSpace=wrap;html=1;" parent="1" vertex="1">
          <mxGeometry x="30" y="470" width="160" height="120" as="geometry" />
        </mxCell>
        <mxCell id="Ubv2tb3gwohrMieOdlO1-3" value="objectId _id&lt;br&gt;string name&lt;br&gt;&lt;b&gt;objectId&lt;/b&gt; supplier_id" style="align=left;strokeColor=none;fillColor=none;spacingLeft=4;fontSize=12;verticalAlign=top;resizable=0;rotatable=0;part=1;html=1;" parent="Ubv2tb3gwohrMieOdlO1-2" vertex="1">
          <mxGeometry y="50" width="160" height="70" as="geometry" />
        </mxCell>
        <mxCell id="Ubv2tb3gwohrMieOdlO1-5" value="Client" style="swimlane;childLayout=stackLayout;horizontal=1;startSize=50;horizontalStack=0;rounded=1;fontSize=14;fontStyle=0;strokeWidth=2;resizeParent=0;resizeLast=1;shadow=0;dashed=0;align=center;arcSize=4;whiteSpace=wrap;html=1;" parent="1" vertex="1">
          <mxGeometry x="500" y="166" width="160" height="180" as="geometry" />
        </mxCell>
        <mxCell id="Ubv2tb3gwohrMieOdlO1-6" value="objectId _id&lt;br&gt;string name&lt;br&gt;string surname&lt;br&gt;string cp&lt;br&gt;string mail&lt;br&gt;date register_date&lt;br&gt;&lt;b&gt;objectId&lt;/b&gt; by_client_id" style="align=left;strokeColor=none;fillColor=none;spacingLeft=4;fontSize=12;verticalAlign=top;resizable=0;rotatable=0;part=1;html=1;" parent="Ubv2tb3gwohrMieOdlO1-5" vertex="1">
          <mxGeometry y="50" width="160" height="130" as="geometry" />
        </mxCell>
        <mxCell id="Kp7Tf2_QjUe399NsqHoW-1" value="" style="edgeStyle=orthogonalEdgeStyle;fontSize=12;html=1;endArrow=ERoneToMany;rounded=0;exitX=1;exitY=0.75;exitDx=0;exitDy=0;" edge="1" parent="Ubv2tb3gwohrMieOdlO1-5">
          <mxGeometry width="100" height="100" relative="1" as="geometry">
            <mxPoint x="160" y="111.5" as="sourcePoint" />
            <mxPoint x="160" y="29" as="targetPoint" />
            <Array as="points">
              <mxPoint x="210" y="112" />
              <mxPoint x="210" y="29" />
            </Array>
          </mxGeometry>
        </mxCell>
        <mxCell id="Ubv2tb3gwohrMieOdlO1-8" value="Employee" style="swimlane;childLayout=stackLayout;horizontal=1;startSize=50;horizontalStack=0;rounded=1;fontSize=14;fontStyle=0;strokeWidth=2;resizeParent=0;resizeLast=1;shadow=0;dashed=0;align=center;arcSize=4;whiteSpace=wrap;html=1;" parent="1" vertex="1">
          <mxGeometry x="770" y="415" width="160" height="110" as="geometry" />
        </mxCell>
        <mxCell id="Ubv2tb3gwohrMieOdlO1-9" value="objectId _id&lt;br&gt;string name" style="align=left;strokeColor=none;fillColor=none;spacingLeft=4;fontSize=12;verticalAlign=top;resizable=0;rotatable=0;part=1;html=1;" parent="Ubv2tb3gwohrMieOdlO1-8" vertex="1">
          <mxGeometry y="50" width="160" height="60" as="geometry" />
        </mxCell>
        <mxCell id="Ubv2tb3gwohrMieOdlO1-10" value="Product" style="swimlane;childLayout=stackLayout;horizontal=1;startSize=50;horizontalStack=0;rounded=1;fontSize=14;fontStyle=0;strokeWidth=2;resizeParent=0;resizeLast=1;shadow=0;dashed=0;align=center;arcSize=4;whiteSpace=wrap;html=1;" parent="1" vertex="1">
          <mxGeometry x="270" y="426" width="160" height="190" as="geometry" />
        </mxCell>
        <mxCell id="Ubv2tb3gwohrMieOdlO1-11" value="objectId _id&lt;b&gt;&lt;br&gt;objectId &lt;/b&gt;brand_id&lt;br&gt;int graduation&lt;br&gt;string frame&lt;br&gt;string frame_color&lt;br&gt;string glass_color&lt;br&gt;int price&lt;br&gt;&lt;b&gt;bjectId &lt;/b&gt;supplier_id" style="align=left;strokeColor=none;fillColor=none;spacingLeft=4;fontSize=12;verticalAlign=top;resizable=0;rotatable=0;part=1;html=1;" parent="Ubv2tb3gwohrMieOdlO1-10" vertex="1">
          <mxGeometry y="50" width="160" height="140" as="geometry" />
        </mxCell>
        <mxCell id="Ubv2tb3gwohrMieOdlO1-12" value="Sale" style="swimlane;childLayout=stackLayout;horizontal=1;startSize=50;horizontalStack=0;rounded=1;fontSize=14;fontStyle=0;strokeWidth=2;resizeParent=0;resizeLast=1;shadow=0;dashed=0;align=center;arcSize=4;whiteSpace=wrap;html=1;" parent="1" vertex="1">
          <mxGeometry x="510" y="426" width="160" height="130" as="geometry" />
        </mxCell>
        <mxCell id="Ubv2tb3gwohrMieOdlO1-13" value="objectId _id&lt;b&gt;&lt;br&gt;objectId&lt;/b&gt;&amp;nbsp;client_id&lt;br&gt;&lt;b&gt;objectId&lt;/b&gt;&amp;nbsp;product_id&lt;br&gt;&lt;b&gt;objectId &lt;/b&gt;employee_id" style="align=left;strokeColor=none;fillColor=none;spacingLeft=4;fontSize=12;verticalAlign=top;resizable=0;rotatable=0;part=1;html=1;" parent="Ubv2tb3gwohrMieOdlO1-12" vertex="1">
          <mxGeometry y="50" width="160" height="80" as="geometry" />
        </mxCell>
        <mxCell id="Ubv2tb3gwohrMieOdlO1-14" value="Supplier" style="swimlane;childLayout=stackLayout;horizontal=1;startSize=50;horizontalStack=0;rounded=1;fontSize=14;fontStyle=0;strokeWidth=2;resizeParent=0;resizeLast=1;shadow=0;dashed=0;align=center;arcSize=4;whiteSpace=wrap;html=1;" parent="1" vertex="1">
          <mxGeometry x="30" y="130" width="160" height="256" as="geometry" />
        </mxCell>
        <mxCell id="Ubv2tb3gwohrMieOdlO1-15" value="objectId _id&lt;br&gt;string name&lt;br&gt;string phone&lt;br&gt;string fax&lt;br&gt;string nif&lt;br&gt;&lt;b&gt;object &lt;/b&gt;direction&lt;br&gt;&lt;blockquote style=&quot;margin: 0 0 0 40px; border: none; padding: 0px;&quot;&gt;string street&lt;br&gt;int number&lt;br&gt;int pis&lt;br&gt;int porta&lt;br&gt;string ciutat&lt;br&gt;string codi_postal&lt;br&gt;string pais&lt;/blockquote&gt;&lt;blockquote style=&quot;margin: 0 0 0 40px; border: none; padding: 0px;&quot;&gt;&lt;br&gt;&lt;/blockquote&gt;&lt;blockquote style=&quot;margin: 0 0 0 40px; border: none; padding: 0px;&quot;&gt;&lt;br&gt;&lt;/blockquote&gt;&lt;blockquote style=&quot;margin: 0 0 0 40px; border: none; padding: 0px;&quot;&gt;&lt;br&gt;&lt;/blockquote&gt;" style="align=left;strokeColor=none;fillColor=none;spacingLeft=4;fontSize=12;verticalAlign=top;resizable=0;rotatable=0;part=1;html=1;" parent="Ubv2tb3gwohrMieOdlO1-14" vertex="1">
          <mxGeometry y="50" width="160" height="206" as="geometry" />
        </mxCell>
        <mxCell id="Ubv2tb3gwohrMieOdlO1-21" value="" style="fontSize=12;html=1;endArrow=ERoneToMany;rounded=0;exitX=0.5;exitY=1;exitDx=0;exitDy=0;" parent="1" source="Ubv2tb3gwohrMieOdlO1-15" edge="1">
          <mxGeometry width="100" height="100" relative="1" as="geometry">
            <mxPoint x="110" y="380" as="sourcePoint" />
            <mxPoint x="110" y="470" as="targetPoint" />
          </mxGeometry>
        </mxCell>
        <mxCell id="Ubv2tb3gwohrMieOdlO1-23" value="" style="fontSize=12;html=1;endArrow=ERoneToMany;rounded=0;exitX=1;exitY=0.25;exitDx=0;exitDy=0;entryX=-0.013;entryY=0.175;entryDx=0;entryDy=0;entryPerimeter=0;" parent="1" source="Ubv2tb3gwohrMieOdlO1-2" target="Ubv2tb3gwohrMieOdlO1-11" edge="1">
          <mxGeometry width="100" height="100" relative="1" as="geometry">
            <mxPoint x="250" y="396" as="sourcePoint" />
            <mxPoint x="250" y="480" as="targetPoint" />
          </mxGeometry>
        </mxCell>
        <mxCell id="Ubv2tb3gwohrMieOdlO1-25" value="" style="fontSize=12;html=1;endArrow=ERoneToMany;rounded=0;exitX=1;exitY=0.25;exitDx=0;exitDy=0;entryX=-0.013;entryY=0.175;entryDx=0;entryDy=0;entryPerimeter=0;" parent="1" edge="1">
          <mxGeometry width="100" height="100" relative="1" as="geometry">
            <mxPoint x="430" y="496" as="sourcePoint" />
            <mxPoint x="508" y="497" as="targetPoint" />
          </mxGeometry>
        </mxCell>
        <mxCell id="Ubv2tb3gwohrMieOdlO1-28" value="" style="fontSize=12;html=1;endArrow=ERoneToMany;rounded=0;entryX=0.447;entryY=-0.027;entryDx=0;entryDy=0;entryPerimeter=0;" parent="1" source="Ubv2tb3gwohrMieOdlO1-6" target="Ubv2tb3gwohrMieOdlO1-12" edge="1">
          <mxGeometry width="100" height="100" relative="1" as="geometry">
            <mxPoint x="410" y="366" as="sourcePoint" />
            <mxPoint x="488" y="367" as="targetPoint" />
          </mxGeometry>
        </mxCell>
        <mxCell id="Ubv2tb3gwohrMieOdlO1-29" value="" style="fontSize=12;html=1;endArrow=ERoneToMany;rounded=0;exitX=-0.011;exitY=0.372;exitDx=0;exitDy=0;exitPerimeter=0;" parent="1" source="Ubv2tb3gwohrMieOdlO1-8" edge="1">
          <mxGeometry width="100" height="100" relative="1" as="geometry">
            <mxPoint x="710" y="356" as="sourcePoint" />
            <mxPoint x="670" y="456" as="targetPoint" />
          </mxGeometry>
        </mxCell>
      </root>
    </mxGraphModel>
  </diagram>
</mxfile>
